# xmcd
#
# Track frame offsets:
#	150
#	9377
#	23980
#	42590
#	61702
#	77190
#	80575
#	104467
#	114710
#	127407
#	133292
#	156600
#	178700
#	186652
#	190437
#	205785
#	218905
#	241437
#	269482
#
# Disc length: 3846 seconds
#
# Revision: 2
# Processed by: cddbd v1.5.2PL0 Copyright (c) Steve Scherf et al.
# Submitted via: audiograbber 1.83.01
#
DISCID=2d0f0413
DTITLE=The Beatnuts - A Musical Massacre
DYEAR=1999
DGENRE=Hip-Hop
TTITLE0=Intro
TTITLE1=Beatnuts 4 Ever [Feat. Triple Seis and Marion "Perro" Manson]
TTITLE2=Muchachacha [Feat. Willie Stubz and Swinger]
TTITLE3=I Love It
TTITLE4=Slam Pit [Feat. Cuban Link and Common]
TTITLE5=Wild Wild What!
TTITLE6=Look Around [Feat. Dead Prez and Cheryl Pepsi Riley]
TTITLE7=Coca Tasa [Feat. Tony Touch]
TTITLE8=Monster For Music
TTITLE9=Spelling Beatnuts With Lil' Donny
TTITLE10=Puffin' On A Cloud
TTITLE11=Turn It Out [Feat. Greg Nice]
TTITLE12=Rated R [Feat Nogoodus]
TTITLE13=Who You're Fuckin' Wit
TTITLE14=Story 2000 [Feat. Patrick Blazy]
TTITLE15=Watch Out Now
TTITLE16=You're A Clown [Feat. Biz Markie and Tyler Fernandez]
TTITLE17=Buddah In The Air [Feat. Carl Thomas and Gob Goblin Of The Nogoodus]
TTITLE18=Se Acaba (It's Over) [Feat. Magic Juan From Proyecto Uno and Swinger]
EXTD=YEAR: 1999
EXTT0=
EXTT1=
EXTT2=
EXTT3=
EXTT4=
EXTT5=
EXTT6=
EXTT7=
EXTT8=
EXTT9=
EXTT10=
EXTT11=
EXTT12=
EXTT13=
EXTT14=
EXTT15=
EXTT16=
EXTT17=
EXTT18=
PLAYORDER=
